<?xml version="1.0" standalone="no"?>
<!DOCTYPE svg PUBLIC "-//W3C//DTD SVG 20010904//EN"
 "http://www.w3.org/TR/2001/REC-SVG-20010904/DTD/svg10.dtd">
<svg version="1.0" xmlns="http://www.w3.org/2000/svg"
 width="446.000000pt" height="313.000000pt" viewBox="0 0 446.000000 313.000000"
 preserveAspectRatio="xMidYMid meet">

<g transform="translate(0.000000,313.000000) scale(0.100000,-0.100000)"
fill="#000000" stroke="none">
<path d="M1449 3051 c-41 -8 -136 -60 -189 -102 -33 -26 -42 -28 -145 -31
-136 -4 -165 -16 -261 -113 l-71 -72 -79 -12 c-212 -34 -317 -147 -340 -369
-7 -60 -9 -64 -50 -93 -54 -37 -106 -101 -128 -159 -13 -33 -17 -67 -14 -135
3 -90 2 -92 -33 -141 -59 -83 -79 -124 -95 -191 -25 -107 2 -206 90 -328 35
-49 36 -52 36 -142 0 -121 23 -183 96 -263 31 -32 63 -62 74 -65 13 -4 20 -20
25 -63 28 -233 129 -342 350 -374 l86 -12 35 -48 c75 -101 167 -143 298 -136
l81 5 61 -43 c106 -76 156 -94 259 -94 102 0 150 17 256 91 l59 42 87 -2 c134
-3 217 35 298 137 40 49 40 49 124 62 98 15 206 64 247 113 42 50 72 124 89
222 l15 90 65 58 c91 82 119 146 116 258 l-1 36 -92 2 c-50 1 -95 4 -99 6 -4
3 -28 2 -54 -2 -45 -6 -49 -9 -67 -51 -11 -25 -27 -79 -35 -122 l-15 -76 -71
-40 c-104 -58 -185 -137 -237 -234 -24 -44 -48 -84 -54 -89 -6 -4 -41 -13 -79
-19 -80 -13 -163 -49 -233 -102 -45 -34 -59 -39 -97 -37 -25 1 -43 5 -41 8 7
13 -143 43 -206 42 -36 -1 -103 -13 -152 -27 l-87 -26 -72 50 c-82 57 -150 85
-229 94 -67 8 -69 10 -99 66 -30 57 -92 150 -101 150 -3 0 -24 16 -46 35 -21
20 -72 55 -112 78 -45 26 -74 49 -77 62 -2 11 -7 42 -10 70 -9 64 -51 155
-104 225 -29 38 -40 61 -36 75 46 156 56 214 51 280 -3 39 -17 108 -31 154
-20 70 -22 86 -11 95 24 19 92 129 109 176 9 25 19 63 22 85 13 83 12 83 88
122 93 48 181 136 229 228 54 104 54 103 136 115 71 10 181 55 219 89 64 58
71 61 116 44 159 -58 283 -59 454 -2 30 9 37 7 85 -29 89 -66 156 -94 260
-107 47 -6 47 -6 89 -85 24 -44 61 -98 83 -121 43 -43 147 -116 208 -145 34
-16 37 -21 47 -83 17 -99 49 -180 75 -187 11 -2 80 -3 151 -2 l130 3 -2 54
c-1 58 -21 131 -35 131 -4 0 -7 3 -6 8 2 10 -35 72 -44 72 -4 0 -29 23 -56 50
-45 46 -50 56 -56 110 -22 196 -107 297 -286 340 -47 11 -99 20 -116 20 -26 0
-39 9 -72 53 -80 103 -137 131 -274 132 l-97 1 -60 43 c-120 84 -235 115 -342
92z m157 -192 c12 -20 -19 -30 -78 -26 -61 3 -74 9 -63 26 8 15 132 14 141 0z
m823 -343 c48 -25 81 -90 47 -91 -18 0 -66 37 -66 51 0 3 -7 12 -15 21 -8 8
-13 19 -10 24 8 12 11 12 44 -5z m-1759 -4 c0 -12 -60 -81 -81 -92 -33 -18
-23 28 15 66 31 31 66 45 66 26z m-410 -940 c0 -65 -13 -97 -30 -72 -21 32 -4
150 20 135 5 -3 10 -32 10 -63z m2223 -910 c-15 -26 -59 -62 -77 -62 -18 0 -1
35 36 70 46 46 69 41 41 -8z m-1835 -13 c28 -29 42 -59 27 -59 -15 0 -70 42
-86 66 -37 56 2 52 59 -7z m946 -365 c33 -13 -4 -34 -58 -34 -55 0 -83 11 -72
29 8 12 103 15 130 5z"/>
<path d="M1124 1951 c-143 -49 -246 -155 -290 -300 -20 -66 -18 -196 4 -263
73 -220 286 -349 504 -303 40 8 97 27 128 42 63 31 147 113 176 172 10 23 22
41 25 41 3 0 25 -18 49 -41 65 -62 120 -83 215 -83 64 0 90 4 127 23 62 30
119 88 149 151 13 27 27 50 31 50 5 0 8 -45 8 -100 l0 -100 50 0 50 0 0 120
c0 66 3 120 8 120 232 7 231 7 274 33 118 69 118 236 -1 310 -33 20 -50 22
-208 25 l-173 4 -1 -94 c-1 -51 -4 -104 -8 -117 l-7 -24 -17 26 c-9 14 -17 30
-17 34 0 16 -93 103 -103 96 -6 -3 -7 -1 -3 5 7 12 -40 37 -91 47 -108 22
-208 -6 -286 -80 -20 -19 -40 -35 -45 -35 -4 0 -13 14 -21 31 -21 47 -114 142
-170 172 -27 15 -71 34 -98 42 -65 20 -195 18 -259 -4z m264 -163 c50 -25 111
-90 137 -144 26 -54 30 -141 11 -206 -19 -65 -77 -136 -144 -176 -41 -24 -57
-27 -132 -27 -98 0 -140 17 -202 82 -63 66 -83 116 -82 208 0 66 4 89 26 130
30 58 76 104 133 134 58 31 190 30 253 -1z m1206 -59 c38 -30 34 -92 -7 -123
-25 -18 -42 -21 -130 -21 l-102 0 -3 83 -3 82 109 0 c96 0 113 -3 136 -21z
m-559 -22 c21 -12 53 -42 69 -67 26 -39 30 -53 31 -115 0 -62 -4 -77 -28 -113
-91 -139 -287 -131 -358 14 -17 36 -20 58 -17 114 3 59 8 74 34 107 73 90 173
112 269 60z"/>
<path d="M2877 1841 c-110 -44 -148 -160 -79 -242 17 -21 66 -51 132 -82 58
-27 115 -59 128 -70 27 -25 28 -61 2 -87 -41 -41 -186 -17 -225 37 -9 12 -17
8 -50 -20 -40 -35 -40 -35 -21 -56 11 -11 46 -34 79 -51 99 -49 229 -39 295
23 53 49 67 123 35 175 -20 31 -82 92 -94 92 -13 0 -121 52 -151 72 -16 11
-34 16 -40 12 -7 -4 -10 -4 -6 1 4 4 3 16 -3 27 -19 36 -3 65 46 84 42 16 48
16 89 0 24 -9 52 -26 61 -36 25 -27 36 -25 74 14 l33 34 -32 23 c-17 13 -35
24 -38 24 -4 0 -14 5 -22 10 -55 36 -146 42 -213 16z"/>
<path d="M3472 1841 c-265 -92 -280 -460 -24 -579 48 -21 64 -24 140 -20 101
5 157 31 216 100 53 61 70 105 74 188 3 64 0 84 -21 132 -22 49 -97 145 -97
124 0 -4 -12 5 -26 19 -14 14 -30 23 -35 20 -5 -4 -9 -2 -9 3 0 11 -45 22
-115 27 -32 3 -69 -2 -103 -14z m184 -100 c115 -52 156 -206 84 -313 -40 -60
-92 -88 -161 -88 -70 0 -120 10 -113 21 3 5 -1 9 -8 9 -17 0 -51 37 -72 77
-25 49 -22 158 7 205 57 93 170 131 263 89z"/>
<path d="M3980 1545 l0 -305 210 0 210 0 0 50 c0 58 20 52 -180 54 l-135 1 -3
253 -2 252 -50 0 -50 0 0 -305z"/>
</g>
</svg>
